<!-- icon666.com - MILLIONS OF FREE VECTOR ICONS --><svg id="Layer_1" viewBox="0 0 64 64" xmlns="http://www.w3.org/2000/svg"><path d="m54.845 18.421h-38.236v-4.961c0-1.94-1.579-3.52-3.52-3.52h-4.214c-.553 0-1 .447-1 1s.447 1 1 1h4.215c.838 0 1.52.682 1.52 1.52v24.435c0 1.94 1.578 3.52 3.519 3.52h28.023c1.787 0 3.724-1.293 4.407-2.944l1.965-4.747c.001 0 .001 0 .001-.001l4.799-11.592c.383-.924.327-1.865-.152-2.582-.481-.717-1.328-1.128-2.327-1.128zm-3.91 13.912h-34.326v-4.916h36.36zm-2.224 5.371c-.377.911-1.573 1.71-2.56 1.71h-28.023c-.837 0-1.519-.682-1.519-1.52v-3.562h33.497zm6.765-16.339-1.678 4.052h-37.189v-4.996h38.235c.32 0 .563.087.663.239.103.152.091.409-.031.705zm-33.358 32.695c3.213 0 5.827-2.614 5.827-5.827 0-3.214-2.614-5.828-5.827-5.828-3.214 0-5.829 2.614-5.829 5.828 0 3.212 2.615 5.827 5.829 5.827zm0-9.656c2.11 0 3.827 1.718 3.827 3.828s-1.717 3.827-3.827 3.827c-2.111 0-3.829-1.717-3.829-3.827s1.718-3.828 3.829-3.828zm25.903 3.828c0-3.214-2.614-5.828-5.828-5.828-3.213 0-5.827 2.614-5.827 5.828 0 3.213 2.614 5.827 5.827 5.827 3.214.001 5.828-2.614 5.828-5.827zm-9.655 0c0-2.11 1.717-3.828 3.827-3.828 2.111 0 3.828 1.718 3.828 3.828s-1.717 3.827-3.828 3.827c-2.11.001-3.827-1.716-3.827-3.827z"/></svg>